<svg xmlns="http://www.w3.org/2000/svg" width="256" height="256"><path fill-opacity=".016" d="M0 128.004v128.004l128.25-.254 128.25-.254.254-127.75L257.008 0H0v128.004m.485.496c0 70.4.119 99.053.265 63.672.146-35.38.146-92.98 0-128C.604 29.153.485 58.1.485 128.5" fill="#1976D2" fill-rule="evenodd"/><path fill-opacity=".087" d="M82.003 25.738c-2.692.502-74.917 71.644-79.611 78.417-2.388 3.447-2.572 4.437-2.246 12.091.323 7.619.631 8.687 3.57 12.396 3.531 4.457 73.098 72.839 76.588 75.284 3.046 2.133 15.527 2.07 18.832-.096 3.198-2.095 73.812-72.585 77.319-77.182 3.539-4.64 4.492-12.88 2.186-18.917-1.297-3.396-9.575-12.205-39.889-42.443-21.038-20.987-39.519-38.638-41.067-39.223-2.79-1.055-10.873-1.224-15.682-.327m4.427 30.286c-2.628.988-5.431 5.221-5.425 8.191.003 1.257 1.055 3.598 2.339 5.202 4.917 6.145 14.348 2.584 14.348-5.417 0-6.076-5.658-10.083-11.262-7.976m103.066 48.726c1.477 5.575 1.686 15.67.407 19.7-2.205 6.943-5.943 11.241-34.829 40.043L127 192.487v10.629c0 8.347.416 11.57 1.939 15.007 2.344 5.291 7.348 10.204 11.96 11.743 4.754 1.586 97.448 1.586 102.202 0 4.349-1.451 9.654-6.415 11.477-10.738 2.197-5.209 2.092-100.589-.116-105.874-1.985-4.75-4.089-7.021-8.672-9.36-3.366-1.718-6.183-1.894-30.367-1.894h-26.656l.729 2.75m-157.041 4.705c-2.71 2.709-2.997 4.691-1.361 9.384.833 2.39 2.002 3.409 4.91 4.28 3.38 1.013 4.165.897 6.848-1.013 3.552-2.53 4.546-5.019 3.643-9.127-1.332-6.067-9.458-8.107-14.04-3.524m51.625-.705c-1.177.963-2.41 3.428-2.738 5.48-.529 3.304-.218 4.083 2.728 6.835 2.723 2.544 3.876 2.996 6.374 2.496 4.088-.817 6.497-3.424 7.207-7.797.487-3 .148-4.056-1.987-6.191-3.074-3.074-8.369-3.451-11.584-.823m51.034.832c-1.117 1.421-2.303 3.439-2.635 4.484-1.419 4.47 4.985 10.874 9.455 9.455 4.265-1.354 7.066-4.58 7.066-8.139 0-7.49-9.451-11.438-13.886-5.8m53.194 48.428C179.777 161.446 182.722 175 192 175c9.491 0 12.208-13.689 3.383-17.045-2.979-1.132-4.151-1.123-7.075.055m-104.385 2.913c-4.272 4.272-3.423 10.617 1.734 12.967 3.895 1.774 6.294 1.313 9.42-1.813 3.73-3.73 3.909-8.182.468-11.622-3.44-3.441-7.892-3.262-11.622.468" fill="#1976D2" fill-rule="evenodd"/><path fill-opacity=".267" d="M80.561 27.165C76.02 29.559 5.314 99.721 2.123 105c-2.543 4.207-2.895 13.937-.691 19.128.871 2.053 16.417 18.258 39.75 41.438 37.225 36.98 38.47 38.103 43.638 39.36 4.304 1.047 6.214 1.054 10 .035 4.264-1.147 8.088-4.647 43.005-39.36 21.079-20.956 39.049-39.451 39.933-41.101 1.037-1.933 1.595-5.389 1.57-9.716-.034-5.782-.429-7.227-2.84-10.389-6.094-7.99-75.643-76.433-79.161-77.903-5.002-2.09-12.063-1.806-16.766.673m5.796 28.805c-5.402 2.234-6.905 9.118-2.987 13.674C88.376 75.464 98 71.751 98 64c0-5.867-6.325-10.229-11.643-8.03M34.5 107.208c-3.195 1.832-4.434 4.032-4.468 7.931-.041 4.673 2.521 7.77 7.023 8.491 9.51 1.521 13.891-12.283 5.198-16.38-3.243-1.529-5.143-1.539-7.753-.042m49.606 1.693c-4.357 4.07-4.323 8.897.089 12.609 5.948 5.006 13.841 1.355 13.773-6.371-.035-3.997-1.321-6.201-4.652-7.976-3.454-1.839-5.869-1.383-9.21 1.738m52.239-.97c-8.361 5.098-2.435 18.092 7.023 15.399 4.495-1.28 7.457-6.924 5.77-10.996-1.209-2.92-5.686-6.338-8.292-6.33-.74.002-2.766.869-4.501 1.927m-53.272 52.704c-6.668 8.477 3.815 18.96 12.292 12.292 3.611-2.84 3.699-8.954.18-12.472-3.518-3.519-9.632-3.431-12.472.18" fill="#1976D2" fill-rule="evenodd"/><path fill-opacity=".72" d="M82.5 26.537c-3.029 1.144-13.175 10.665-41.809 39.237-22.722 22.672-38.384 39.072-39.25 41.098-1.881 4.402-1.835 11.896.103 16.756 1.12 2.808 11.496 13.715 37.75 39.686 19.913 19.697 37.637 36.939 39.386 38.315 3.848 3.027 12.297 4.194 17.629 2.434 2.682-.885 13.388-10.976 42.081-39.666 35.956-35.951 38.582-38.816 39.989-43.613 1.209-4.127 1.287-6.131.393-10.209-1.075-4.909-2.322-6.293-38.192-42.359-20.394-20.507-38.698-38.407-40.675-39.779-4.553-3.159-11.936-3.965-17.405-1.9m1.283 30.213c-4.357 4.995-4.558 8.724-.732 13.588C84.732 72.475 85.983 73 89.398 73c5.626 0 9.057-3.409 9.057-9 0-5.555-3.436-9-8.974-9-2.724 0-4.701.607-5.698 1.75M33.75 107.08c-2.747 1.6-5.001 6.778-4.257 9.778 1.873 7.549 10.291 9.726 15.606 4.036 1.595-1.708 2.901-3.937 2.901-4.953 0-6.975-8.458-12.234-14.25-8.861m51.67.065c-2.491 1.208-5.42 5.885-5.42 8.654 0 1.094 1.306 3.387 2.901 5.095 7.308 7.823 19.55-.32 14.67-9.757-2.514-4.861-7.193-6.398-12.151-3.992m49.503 1.778c-5.872 5.872-2.447 15.077 5.608 15.077 4.784 0 9.469-4.454 9.469-9 0-2.152-.928-4.082-2.923-6.077-3.93-3.93-8.224-3.93-12.154 0M86.388 157.98c-2.76 1.115-6.388 5.775-6.388 8.205 0 4.947 4.975 9.815 10.031 9.815 2.906 0 7.891-5.064 8.592-8.729.531-2.772.12-3.728-2.902-6.75-3.562-3.562-5.5-4.09-9.333-2.541" fill="#1976D2" fill-rule="evenodd"/></svg>